<svg width="205" height="43" viewBox="0 0 205 43" fill="none" xmlns="http://www.w3.org/2000/svg">
<path d="M19.7971 3.66534C20.3441 2.53896 21.9488 2.53896 22.4958 3.66534L26.8095 12.549C27.0253 12.9933 27.4459 13.3029 27.9342 13.3769L37.5801 14.838C38.7955 15.0221 39.2856 16.5098 38.4175 17.3803L31.4101 24.4068C31.0692 24.7487 30.9137 25.2337 30.9923 25.7101L32.6191 35.5735C32.8215 36.8004 31.5288 37.7266 30.432 37.1405L21.8535 32.5556C21.4117 32.3195 20.8812 32.3195 20.4394 32.5556L11.8609 37.1405C10.7641 37.7266 9.47146 36.8004 9.67384 35.5735L11.3007 25.7101C11.3792 25.2337 11.2237 24.7487 10.8828 24.4068L3.87537 17.3803C3.00731 16.5098 3.49739 15.0221 4.71283 14.838L14.3587 13.3769C14.847 13.3029 15.2677 12.9933 15.4834 12.549L19.7971 3.66534Z" fill="#C4AA6B"/>
<path d="M60.5178 3.66547C61.0648 2.53908 62.6695 2.53908 63.2165 3.66547L67.5302 12.5491C67.746 12.9934 68.1666 13.303 68.6549 13.377L78.3008 14.8381C79.5162 15.0222 80.0063 16.5099 79.1382 17.3804L72.1309 24.4069C71.7899 24.7488 71.6344 25.2339 71.713 25.7102L73.3398 35.5736C73.5422 36.8005 72.2495 37.7267 71.1527 37.1406L62.5742 32.5557C62.1324 32.3196 61.6019 32.3196 61.1601 32.5557L52.5816 37.1406C51.4849 37.7267 50.1922 36.8005 50.3945 35.5736L52.0214 25.7102C52.0999 25.2339 51.9444 24.7488 51.6035 24.4069L44.5961 17.3804C43.728 16.5099 44.2181 15.0222 45.4335 14.8381L55.0794 13.377C55.5677 13.303 55.9884 12.9934 56.2041 12.5491L60.5178 3.66547Z" fill="#C4AA6B"/>
<path d="M141.953 3.66547C142.5 2.53908 144.105 2.53908 144.652 3.66547L148.966 12.5491C149.182 12.9934 149.602 13.303 150.09 13.377L159.736 14.8381C160.952 15.0222 161.442 16.5099 160.574 17.3804L153.566 24.4069C153.225 24.7488 153.07 25.2339 153.149 25.7102L154.775 35.5736C154.978 36.8005 153.685 37.7267 152.588 37.1406L144.01 32.5557C143.568 32.3196 143.037 32.3196 142.596 32.5557L134.017 37.1406C132.92 37.7267 131.628 36.8005 131.83 35.5736L133.457 25.7102C133.535 25.2339 133.38 24.7488 133.039 24.4069L126.032 17.3804C125.164 16.5099 125.654 15.0222 126.869 14.8381L136.515 13.377C137.003 13.303 137.424 12.9934 137.64 12.5491L141.953 3.66547Z" fill="#C4AA6B"/>
<path d="M182.675 3.66553C183.222 2.53914 184.827 2.53914 185.374 3.66553L189.687 12.5492C189.903 12.9935 190.324 13.3031 190.812 13.3771L200.458 14.8381C201.673 15.0223 202.164 16.51 201.295 17.3804L194.288 24.407C193.947 24.7488 193.792 25.2339 193.87 25.7103L195.497 35.5736C195.699 36.8006 194.407 37.7268 193.31 37.1407L184.731 32.5558C184.29 32.3197 183.759 32.3197 183.317 32.5558L174.739 37.1407C173.642 37.7268 172.349 36.8006 172.552 35.5736L174.179 25.7103C174.257 25.2339 174.102 24.7488 173.761 24.407L166.753 17.3804C165.885 16.51 166.375 15.0223 167.591 14.8381L177.237 13.3771C177.725 13.3031 178.146 12.9935 178.361 12.5492L182.675 3.66553Z" fill="#C4AA6B"/>
<path d="M101.233 3.66553C101.78 2.53914 103.384 2.53914 103.931 3.66553L108.245 12.5492C108.461 12.9935 108.881 13.3031 109.37 13.3771L119.016 14.8381C120.231 15.0223 120.721 16.51 119.853 17.3804L112.846 24.407C112.505 24.7488 112.349 25.2339 112.428 25.7103L114.055 35.5736C114.257 36.8006 112.964 37.7268 111.868 37.1407L103.289 32.5558C102.847 32.3197 102.317 32.3197 101.875 32.5558L93.2964 37.1407C92.1997 37.7268 90.907 36.8006 91.1094 35.5736L92.7362 25.7103C92.8148 25.2339 92.6593 24.7488 92.3183 24.407L85.3109 17.3804C84.4429 16.51 84.9329 15.0223 86.1484 14.8381L95.7943 13.3771C96.2826 13.3031 96.7032 12.9935 96.9189 12.5492L101.233 3.66553Z" fill="#C4AA6B"/>
</svg>
