<svg width="60" height="52" viewBox="0 0 60 52" fill="none" xmlns="http://www.w3.org/2000/svg">
<path d="M39.3779 46.6321C39.3779 45.8859 38.7769 45.2849 38.0307 45.2849C37.2846 45.2849 36.6836 45.8859 36.6836 46.6321C36.6836 47.3782 37.2846 47.9792 38.0307 47.9792C38.7769 47.9792 39.3779 47.3782 39.3779 46.6321Z" fill="#C4AA6B"/>
<path d="M48.2905 3.93771C49.0366 3.93771 49.6377 3.33667 49.6377 2.59056C49.6377 1.84444 49.0366 1.24341 48.2905 1.24341C47.5444 1.24341 46.9434 1.84444 46.9434 2.59056C46.9434 3.33667 47.5444 3.93771 48.2905 3.93771Z" fill="#C4AA6B"/>
<path d="M21.2431 11.7099C21.2431 10.9638 20.6421 10.3628 19.896 10.3628C19.1499 10.3628 18.5488 10.9638 18.5488 11.7099C18.5488 12.4561 19.1499 13.0571 19.896 13.0571C20.6421 13.0571 21.2431 12.4561 21.2431 11.7099Z" fill="#C4AA6B"/>
<path d="M9.53367 15.6477C10.2798 15.6477 10.8808 15.0466 10.8808 14.3005C10.8808 13.5544 10.2798 12.9534 9.53367 12.9534C8.78756 12.9534 8.18652 13.5544 8.18652 14.3005C8.18652 15.0466 8.78756 15.6477 9.53367 15.6477Z" fill="#C4AA6B"/>
<path d="M16.062 27.2539C16.8081 27.2539 17.4091 26.6528 17.4091 25.9067C17.4091 25.1606 16.8081 24.5596 16.062 24.5596C15.3159 24.5596 14.7148 25.1606 14.7148 25.9067C14.7148 26.6528 15.3159 27.2539 16.062 27.2539Z" fill="#C4AA6B"/>
<path d="M1.76121 26.0105C2.50733 26.0105 3.10837 25.4094 3.10837 24.6633C3.10837 23.9172 2.50733 23.3162 1.76121 23.3162C1.0151 23.3162 0.414062 23.9172 0.414062 24.6633C0.414062 25.4094 1.0151 26.0105 1.76121 26.0105Z" fill="#C4AA6B"/>
<path d="M3.10887 6.52853C3.85498 6.52853 4.45602 5.92749 4.45602 5.18138C4.45602 4.43527 3.85498 3.83423 3.10887 3.83423C2.36276 3.83423 1.76172 4.43527 1.76172 5.18138C1.76172 5.92749 2.36276 6.52853 3.10887 6.52853Z" fill="#C4AA6B"/>
<path d="M35.4408 46.6321C35.4408 45.9067 34.819 45.2849 34.0936 45.2849H23.7309C23.0056 45.2849 22.3838 45.9067 22.3838 46.6321C22.3838 47.3575 23.0056 47.9792 23.7309 47.9792H34.0936C34.819 47.9792 35.4408 47.3575 35.4408 46.6321Z" fill="#C4AA6B"/>
<path d="M54.9225 49.2229H30.2593C29.5339 49.2229 28.9121 49.8447 28.9121 50.5701C28.9121 51.2954 29.5339 51.9172 30.2593 51.9172H54.9225C55.6479 51.9172 56.2696 51.2954 56.2696 50.5701C56.166 49.8447 55.5443 49.2229 54.9225 49.2229Z" fill="#C4AA6B"/>
<path d="M9.53353 38.2383C7.35736 38.2383 5.5957 39.9999 5.5957 42.1761C5.5957 44.3523 7.35736 46.1139 9.53353 46.1139C11.7097 46.1139 13.4714 44.3523 13.4714 42.1761C13.4714 39.9999 11.7097 38.2383 9.53353 38.2383ZM9.53353 43.4196C8.80814 43.4196 8.18638 42.7979 8.18638 42.0725C8.18638 41.3471 8.80814 40.7253 9.53353 40.7253C10.2589 40.7253 10.8807 41.3471 10.8807 42.0725C10.8807 42.7979 10.2589 43.4196 9.53353 43.4196Z" fill="#C4AA6B"/>
<path d="M19.7928 33.7824L20.829 36.7876C21.0363 37.3058 21.4508 37.7203 22.0726 37.7203H58.342C59.0674 37.7203 59.6892 37.0985 59.6892 36.3731C59.6892 35.6477 59.4819 35.026 58.7565 35.026H57.4094V32.4353C57.4094 31.7099 56.7876 31.0881 56.0622 31.0881H54.7151V17.513L55.3368 17.9275C56.1659 18.4456 57.3057 17.8239 57.3057 16.7876V9.01558C57.3057 8.2902 56.684 7.66843 55.9586 7.66843H50.7772C50.0519 7.66843 49.4301 8.2902 49.4301 9.01558C49.4301 9.74097 50.0519 10.3627 50.7772 10.3627H54.7151V14.5078L42.4871 6.73579C42.0726 6.42491 41.5544 6.42491 41.1399 6.73579L27.6684 14.6114V10.3627H31.399C32.1244 10.3627 32.7461 9.74097 32.7461 9.01558V6.42491H34.0933V7.77206C34.0933 8.49745 34.7151 9.11921 35.4404 9.11921C36.1658 9.11921 36.7876 8.49745 36.7876 7.77206V5.18138C36.7876 4.456 36.1658 3.83423 35.4404 3.83423H31.5026C30.7772 3.83423 30.1555 4.456 30.1555 5.18138V7.77206H26.4249C25.6995 7.77206 25.0777 8.39382 25.0777 9.11921V16.8912C25.0777 17.9275 26.114 18.5493 27.0467 18.0311L27.5648 17.7203V31.1918H26.2176C25.4922 31.1918 24.8705 31.8135 24.8705 32.5389V35.1296H23.2125L22.1762 32.1244C21.9689 31.6063 21.5544 31.1918 20.9327 31.1918H10.57V28.2902C16.1658 25.285 15.7513 2.69434 9.22281 2.69434C2.6943 2.69434 2.38342 25.285 7.87565 28.2902V31.0881H1.34715C0.621762 31.0881 0 31.7099 0 32.4353C0 33.1607 0.621762 33.7824 1.34715 33.7824H19.7928ZM30.2591 29.8446H34.1969C34.9223 29.8446 35.5441 29.2229 35.5441 28.4975C35.5441 27.7721 34.9223 27.1503 34.1969 27.1503H30.2591V16.1658L41.8653 9.32647L52.228 15.9586V27.2539H48.2902C47.5648 27.2539 46.943 27.8757 46.943 28.6011C46.943 29.3265 47.5648 29.9482 48.2902 29.9482H52.228V31.0881H45.8031V21.969C45.8031 21.2436 45.1814 20.6218 44.456 20.6218H37.9275C37.2021 20.6218 36.5803 21.2436 36.5803 21.969V31.0881H30.2591V29.8446ZM43.2125 23.3161V31.0881H39.2746V23.3161H43.2125ZM27.6684 33.6788H54.9223V35.026H27.6684V33.6788ZM7.97928 7.66843C8.70467 5.59589 9.43006 5.18138 9.53369 5.18138C9.63731 5.18138 10.3627 5.59589 11.0881 7.66843C12.6425 12.228 12.5389 19.7928 10.8808 23.9379V18.0311C10.8808 17.3057 10.2591 16.684 9.53369 16.684C8.8083 16.684 8.18653 17.3057 8.18653 18.0311V23.9379C6.63213 19.8964 6.5285 12.228 7.97928 7.66843Z" fill="#C4AA6B"/>
<path d="M18.6533 22.6944C18.6533 24.456 20.1041 25.9068 21.8658 25.9068C23.6274 25.9068 25.0782 24.456 25.0782 22.6944C25.0782 20.9327 23.6274 19.4819 21.8658 19.4819C20.1041 19.4819 18.6533 20.9327 18.6533 22.6944ZM22.4875 22.6944C22.4875 23.0053 22.1766 23.3161 21.8658 23.3161C21.5549 23.3161 21.244 23.0053 21.244 22.6944C21.244 22.3835 21.5549 22.0726 21.8658 22.0726C22.1766 22.0726 22.4875 22.2799 22.4875 22.6944Z" fill="#C4AA6B"/>
<path d="M56.7876 6.5285C58.5493 6.5285 60.0001 5.07772 60.0001 3.31606C60.0001 1.55441 58.5493 0 56.7876 0C55.026 0 53.5752 1.45078 53.5752 3.21244C53.5752 4.9741 55.026 6.5285 56.7876 6.5285ZM56.7876 2.59068C57.0985 2.59068 57.4094 2.90156 57.4094 3.21244C57.4094 3.52332 57.0985 3.8342 56.7876 3.8342C56.4768 3.8342 56.1659 3.62695 56.1659 3.21244C56.1659 2.79793 56.4768 2.59068 56.7876 2.59068Z" fill="#C4AA6B"/>
<path d="M18.6527 7.77203C20.8288 7.77203 22.5905 6.01037 22.5905 3.8342C22.5905 1.65803 20.7252 0 18.6527 0C16.5801 0 14.7148 1.76166 14.7148 3.93783C14.7148 6.11399 16.4765 7.77203 18.6527 7.77203ZM18.6527 2.59068C19.3781 2.59068 19.9998 3.21244 19.9998 3.93783C19.9998 4.66322 19.3781 5.28498 18.6527 5.28498C17.9273 5.28498 17.3055 4.66322 17.3055 3.93783C17.3055 3.21244 17.9273 2.59068 18.6527 2.59068Z" fill="#C4AA6B"/>
</svg>
