<svg width="56" height="53" viewBox="0 0 56 53" fill="none" xmlns="http://www.w3.org/2000/svg">
<path d="M50.8369 6.76279L50.3749 7.22474C49.2663 6.5041 47.6864 6.65192 46.6886 7.64049L44.1756 10.1535C43.0484 11.2806 43.0392 13.1192 44.1479 14.2279C45.2566 15.3366 47.0951 15.3273 48.2223 14.2094L48.6842 13.7475C49.7929 14.4589 51.3728 14.3203 52.3706 13.3317L54.8836 10.8187C56.0107 9.69155 56.02 7.85299 54.902 6.74431C53.7841 5.63564 51.9548 5.64488 50.8277 6.77203L50.8369 6.76279ZM53.3222 9.24807L50.8092 11.7611C50.2826 12.2877 49.9592 11.5671 49.6266 11.2437C49.1646 10.7817 48.444 10.8557 48.0467 11.2437L46.7256 12.5649C46.1989 13.0915 45.3489 12.2415 45.8756 11.7149L48.3886 9.20188C48.9152 8.67526 49.2386 9.3959 49.5712 9.71926C50.0331 10.1812 50.7537 10.1073 51.151 9.71926L52.4722 8.39809C52.9988 7.87147 53.8488 8.72145 53.3222 9.24807Z" fill="#C4AA6B"/>
<path d="M46.6426 39.6353H26.825C26.169 39.6353 25.6055 40.1896 25.6055 40.8363V46.6569C25.6055 47.3036 26.169 47.8579 26.825 47.8579H46.735C47.391 47.8579 47.9453 47.3036 47.9453 46.6569V40.8363C47.8529 40.1896 47.2893 39.6353 46.6334 39.6353H46.6426ZM27.9522 41.945H34.9645V45.4558H27.9522V41.945ZM45.5155 45.4558H37.2928V41.945H45.5155V45.4558Z" fill="#C4AA6B"/>
<path d="M54.8656 50.0752H52.5282V31.6896C52.5282 31.5048 52.4358 31.3201 52.3434 31.1353L44.8691 18.2931C44.6843 17.9235 44.3055 17.7388 43.8435 17.7388H14.2142C13.8446 17.7388 13.4658 17.9235 13.281 18.2931L4.87356 31.1353C4.78117 31.3201 4.68878 31.5048 4.68878 31.782V50.1676H1.12254C-0.374178 50.1676 -0.374178 52.4773 1.12254 52.4773H54.958C56.3624 52.3849 56.3624 50.0752 54.8656 50.0752ZM49.2576 30.5809H47.2989L41.6909 21.7115C40.8501 20.4181 38.8822 21.7115 39.7322 22.9126L44.4995 30.4886H42.5409L36.9328 21.6191C36.092 20.3257 34.1241 21.6191 34.9741 22.8202L39.7414 30.3962H37.7828L32.1747 21.5267C31.334 20.2333 29.3661 21.5267 30.2161 22.7278L34.9834 30.3038H33.0247L27.4167 21.4344C26.5759 20.1409 24.6172 21.4344 25.458 22.6354L30.2253 30.2114H28.2666L22.6586 21.342C21.8178 20.0485 19.8592 21.342 20.6999 22.543L25.4672 30.119H22.8526L16.3114 20.0485H43.2245L49.3038 30.5809H49.2576ZM14.2142 21.0648L20.007 30.5809H7.85775L14.2142 21.0648ZM6.92461 32.8907H20.9401V50.0752H18.6027V43.1459C18.6027 40.6514 16.45 38.5265 13.9278 38.5265C11.4055 38.5265 9.25283 40.6514 9.25283 43.1459V50.0752H6.91537V32.8907H6.92461ZM11.5903 50.0752V43.1459C11.5903 40.1895 16.2652 40.1895 16.2652 43.1459V50.0752H11.5903ZM23.2776 50.0752V32.8907H50.1907V35.108H29.1628C27.6661 35.108 27.6661 37.4178 29.1628 37.4178H50.1907V50.1676H23.2776V50.0752Z" fill="#C4AA6B"/>
<path d="M3.85709 12.6574H19.0922C21.1432 12.6574 22.5475 10.5324 21.7992 8.68463C21.4204 7.85313 20.6813 7.2064 19.7389 6.92923C19.3601 6.83684 18.8057 6.92923 18.621 6.65206C18.3438 6.2825 18.621 5.72816 19.0922 5.72816H24.9774C26.5665 5.72816 27.8784 4.43471 27.8784 2.86408C27.8784 1.29346 26.5665 0 24.9774 0H9.64993C8.06082 0 6.74889 1.29346 6.74889 2.86408C6.74889 4.43471 8.06082 5.72816 9.64993 5.72816H10.8695C11.6178 5.72816 11.6178 6.92923 10.8695 6.92923H3.85709C2.26799 6.92923 0.956055 8.22269 0.956055 9.79331C0.956055 11.3639 2.26799 12.6574 3.85709 12.6574ZM3.85709 9.14658H10.8695C12.4586 9.14658 13.7705 7.85313 13.7705 6.2825C13.7705 4.71188 12.4586 3.41842 10.8695 3.41842H9.64993C8.90157 3.41842 8.90157 2.21735 9.64993 2.21735H24.885C25.6334 2.21735 25.6334 3.41842 24.885 3.41842H18.9998C16.9395 3.41842 15.5444 5.54338 16.2927 7.39118C16.6623 8.22269 17.4107 8.86941 18.353 9.14658C18.7226 9.23897 19.2862 9.14658 19.471 9.42375C19.7481 9.79331 19.471 10.3476 18.9998 10.3476H3.85709C3.10874 10.3476 3.10874 9.14658 3.85709 9.14658Z" fill="#C4AA6B"/>
<path d="M29.865 13.766L37.2654 6.36558C38.3186 5.31234 36.6926 3.67704 35.6301 4.73028L28.2297 12.1307C27.1764 13.1839 28.8025 14.8192 29.865 13.766Z" fill="#C4AA6B"/>
<path d="M37.3112 9.58996C37.7639 10.0427 38.5584 10.0427 38.9557 9.64539L43.1225 5.47862C44.1757 4.42538 42.5497 2.79008 41.4872 3.84332L37.3204 8.0101C36.9231 8.40737 36.9231 9.19268 37.3204 9.58996H37.3112Z" fill="#C4AA6B"/>
</svg>
