<svg width="56" height="53" viewBox="0 0 56 53" fill="none" xmlns="http://www.w3.org/2000/svg">
<path d="M43.53 36.2775L36.5314 33.284C35.2823 32.7679 34.2294 32.0453 33.1869 31.2195C31.7211 29.9808 31.3082 29.3615 31.1017 29.0518C30.9985 28.9486 30.8953 28.8453 30.792 28.7421C30.6888 28.6389 30.4824 28.6389 30.3688 28.6389V26.9873C33.1869 25.2324 35.0656 22.2389 35.0656 18.7293V15.9422C35.6952 15.9422 36.2114 15.5293 36.4178 14.9099C37.4604 9.85191 37.0475 5.82613 34.952 2.93583C33.4036 0.768099 31.4217 0.0455235 31.2153 0.0455235C30.4824 -0.160927 29.6462 0.355199 29.543 1.181C28.1805 0.768099 26.0953 0.458424 23.8037 0.458424C19.9431 0.561649 14.7199 2.11003 11.7986 8.50998V8.61321C11.489 9.23256 11.7986 10.0584 12.5315 10.2648C12.9444 10.4713 14.4102 10.8842 15.6696 11.1938V18.7293C15.6696 22.1357 17.445 25.1292 20.1599 26.8841V28.7421C19.9534 28.7421 19.8502 28.8453 19.7366 28.9486C19.6334 29.0518 19.5302 29.0518 19.5302 29.155C18.9005 29.9808 18.2812 30.6002 17.3418 31.426C16.4025 32.1485 15.3599 32.7679 14.2038 33.284L6.79221 36.2775C2.40514 38.1356 0 44.9484 0 49.0774V51.6581C0 52.3806 0.629673 53 1.36257 53H49.0835C49.8164 53 50.4461 52.3806 50.4461 51.6581V49.0774C50.3429 45.0517 47.9377 38.1356 43.5507 36.2775H43.53ZM25.3624 39.9936H24.836L24.3095 37.6195L25.0424 36.7937L25.7753 37.6195L25.3624 39.9936ZM20.356 31.8389L23.3805 34.8324L20.8721 37.5162L19.3031 32.8711C19.6128 32.5614 19.9328 32.2518 20.3457 31.8389H20.356ZM26.9314 34.9356L30.0591 31.8389C30.3688 32.1485 30.6888 32.4582 30.9985 32.7679L29.1198 37.5162L26.9314 34.9356ZM23.5869 3.03905C26.9314 2.93583 29.8527 3.96808 30.1624 4.0713C30.2656 4.0713 30.3688 4.17453 30.5753 4.17453C31.1017 4.27775 31.6178 3.96808 31.8243 3.45195C32.9701 4.4842 34.2294 6.44548 34.2294 10.0584C34.1262 10.0584 34.1262 9.95513 34.023 9.95513C33.8165 9.85191 33.4965 9.85191 33.2901 9.95513V9.85191C33.4965 8.81966 32.5572 7.99386 31.5146 8.40676L29.7392 9.12933C29.6359 8.09708 28.4901 7.58096 27.654 8.20031C27.654 8.20031 23.6902 10.9874 14.7096 8.20031C16.5883 5.00033 19.6128 3.2455 23.5869 3.03905ZM17.9508 18.7293V11.8132C20.8721 12.3293 24.0102 12.3293 26.8282 11.4003C26.9314 12.2261 27.8708 12.639 28.6037 12.3293L30.1727 11.71V11.8132C29.9662 12.8454 30.9056 13.6712 31.8449 13.2583L32.7224 13.0519V18.7293C32.7224 22.6518 29.7288 25.8518 25.156 25.8518C21.1921 25.8518 17.9508 22.6518 17.9508 18.7293ZM27.6643 28.1227V30.6002L25.156 33.0776L22.4411 30.3937V28.0195C24.2166 28.5357 25.9921 28.5357 27.6643 28.1227ZM2.60127 49.0774C2.60127 45.3613 4.90319 39.8904 7.82446 38.6517L14.8231 35.6582C15.6592 35.3485 16.3921 34.9356 17.125 34.5227L19.107 40.4065C19.4166 41.3356 20.676 41.542 21.2953 40.9227L22.2347 39.9936L22.5444 41.3356L20.2424 50.4194H9.38316V46.4968C9.38316 45.7742 8.75349 45.1549 8.13414 45.1549C7.51479 45.1549 6.78189 45.7742 6.78189 46.4968V50.4194H2.60127V49.0774ZM22.854 50.3161L24.836 42.5743H25.3624L27.3443 50.3161H22.854ZM47.7106 50.3161H43.3236V46.3936C43.3236 45.671 42.6939 45.0517 41.961 45.0517C41.2281 45.0517 40.6088 45.671 40.6088 46.3936V50.3161H30.0591L27.7676 41.2323L27.974 40.2001L28.5005 40.8194C29.1301 41.542 30.3791 41.4388 30.6888 40.5098L33.1972 34.4195C33.9301 34.9356 34.7662 35.3485 35.6023 35.6582L42.601 38.6517C45.5223 39.8904 47.8242 45.3613 47.8242 49.0774L47.721 50.3161H47.7106Z" fill="#C4AA6B"/>
<path d="M4.17019 6.44556C4.92373 6.44556 5.53276 7.04426 5.53276 7.78748C5.53276 8.5307 4.92373 9.12941 4.17019 9.12941C3.41665 9.12941 2.80762 8.5307 2.80762 7.78748C2.80762 7.04426 3.41665 6.44556 4.17019 6.44556Z" fill="#C4AA6B"/>
<path d="M2.9114 29.6711C3.66494 29.6711 4.27397 30.2698 4.27397 31.0131C4.27397 31.7563 3.66494 32.355 2.9114 32.355C2.15786 32.355 1.54883 31.7563 1.54883 31.0131C1.54883 30.2698 2.15786 29.6711 2.9114 29.6711Z" fill="#C4AA6B"/>
<path d="M43.3235 3.86499C44.0771 3.86499 44.6861 4.4637 44.6861 5.20692C44.6861 5.95014 44.0771 6.54884 43.3235 6.54884C42.57 6.54884 41.9609 5.95014 41.9609 5.20692C41.9609 4.4637 42.57 3.86499 43.3235 3.86499Z" fill="#C4AA6B"/>
<path d="M45.9348 25.7485C46.6884 25.7485 47.2871 26.3472 47.2871 27.0905C47.2871 27.8337 46.6781 28.4324 45.9348 28.4324C45.1916 28.4324 44.5723 27.8337 44.5723 27.0905C44.5723 26.3472 45.1813 25.7485 45.9348 25.7485Z" fill="#C4AA6B"/>
<path d="M38.1003 45.155H34.1364C33.4035 45.155 32.7842 45.7744 32.7842 46.497C32.7842 47.2195 33.4139 47.8389 34.1364 47.8389H38.1003C38.8332 47.8389 39.4525 47.2195 39.4525 46.497C39.4525 45.7744 38.8228 45.155 38.1003 45.155Z" fill="#C4AA6B"/>
<path d="M4.17046 25.8519C6.35883 25.8519 8.1343 24.0971 8.1343 21.9294C8.1343 19.7617 6.35883 18.0068 4.17046 18.0068C1.98208 18.0068 0.196289 19.7617 0.196289 21.9294C0.299514 24.0971 2.07499 25.8519 4.16013 25.8519H4.17046ZM4.17046 20.6907C4.90335 20.6907 5.53303 21.31 5.53303 22.0326C5.53303 22.7552 4.90335 23.3745 4.17046 23.3745C3.43756 23.3745 2.80788 22.7552 2.80788 22.0326C2.91111 21.2068 3.43756 20.6907 4.17046 20.6907Z" fill="#C4AA6B"/>
<path d="M49.28 10.3682C46.0388 10.3682 43.4375 12.9488 43.4375 16.1488C43.4375 19.3487 46.0491 21.9294 49.28 21.9294C52.511 21.9294 55.1329 19.3487 55.1329 16.1488C55.1329 12.9488 52.5213 10.3682 49.28 10.3682ZM49.28 19.3487C47.5046 19.3487 46.0388 17.9036 46.0388 16.1488C46.0388 14.3939 47.5046 12.9488 49.28 12.9488C51.0555 12.9488 52.5213 14.3939 52.5213 16.1488C52.5213 17.9036 51.0555 19.3487 49.28 19.3487Z" fill="#C4AA6B"/>
</svg>
