<svg width="56" height="54" viewBox="0 0 56 54" fill="none" xmlns="http://www.w3.org/2000/svg">
<path d="M32.0985 18.0319C32.0985 17.6639 31.9145 17.2959 31.5373 17.1119L22.9722 10.948C22.595 10.672 22.043 10.672 21.5738 10.948L12.9166 17.1119C11.9874 17.7559 12.4474 19.2279 13.5698 19.2279H14.8762V28.8878C14.8762 29.5318 15.4374 30.0838 16.0814 30.0838H20.2674C20.9206 30.0838 21.4726 29.5318 21.4726 28.8878V25.3919C21.4726 24.1039 23.4229 24.1039 23.4229 25.3919V28.8878C23.4229 29.5318 23.9841 30.0838 24.6281 30.0838H28.6301C29.2833 30.0838 29.8445 29.5318 29.8445 28.8878V19.1359H31.0589C31.6201 19.1359 32.0801 18.6759 32.0801 18.0319C32.0801 17.5719 32.0801 18.6759 32.0801 18.0319H32.0985ZM22.3282 13.2479L27.3513 16.8359H17.2038L22.319 13.2479H22.3282ZM27.3513 27.6918H25.6769V25.2999C25.6769 23.5519 24.1865 21.9879 22.3282 21.9879C20.4698 21.9879 18.9794 23.4599 18.9794 25.2999V27.6918H17.121V19.2279H27.2685L27.3605 27.6918H27.3513Z" fill="#C4AA6B"/>
<path d="M48.9439 40.3878L49.4131 39.9278C49.8823 39.4678 49.8823 38.7318 49.4131 38.2718L45.8803 34.7758C45.4111 34.3158 44.666 34.3158 44.206 34.7758L43.746 35.2358L40.2132 31.7398C44.8684 23.8279 43.562 13.432 36.9564 6.99201C30.7005 0.828052 21.0221 -0.735936 13.1102 3.12804C5.19824 6.99201 0.552272 15.5479 1.75746 24.1959C2.96265 32.7518 9.76141 39.8358 18.4185 41.4918C23.2577 42.4118 28.3729 41.5838 32.66 39.0998L36.294 42.6878L35.8248 43.1478C35.3556 43.6077 35.3556 44.3437 35.8248 44.8037L39.3576 48.2997C39.8268 48.7597 40.572 48.7597 41.032 48.2997L41.5012 47.8397L45.6871 51.9797C47.7387 54.0037 51.1795 54.0037 53.2219 51.9797C55.2735 49.9557 55.2735 46.5517 53.2219 44.5277L48.9439 40.3878ZM22.2365 39.5598C13.3954 39.5598 5.57544 33.1198 4.18625 24.4719C2.69586 15.8239 7.82022 7.17601 16.1922 4.23203C24.3801 1.38005 33.7824 4.78402 38.1524 12.236C42.2464 19.2279 41.0412 28.4279 35.2636 34.1318C31.8228 37.6278 27.0757 39.5598 22.2365 39.5598C25.7693 39.5598 17.3974 39.5598 22.2365 39.5598ZM34.6104 37.8118C36.1928 36.6158 37.6832 35.2358 38.8884 33.6718L42.1452 36.8918L37.8672 41.0318L34.6104 37.8118ZM38.2444 43.8837L38.7136 43.4237L44.574 37.6278L45.0432 37.1678L46.9935 39.0998L46.5243 39.5598L40.572 45.3557L40.1028 45.8157L38.2444 43.8837ZM51.4555 50.3237C50.3423 51.4277 48.3827 51.4277 47.1775 50.3237L42.9916 46.1837L47.2695 41.9518L51.4555 46.0917C52.5687 47.2877 52.5687 49.2197 51.4555 50.3237C52.0167 49.7717 50.8943 50.8757 51.4555 50.3237Z" fill="#C4AA6B"/>
<path d="M33.1194 32.1077C36.4682 28.7958 38.1426 24.0118 37.4894 19.3198C36.9282 14.9959 34.4166 11.1319 30.6999 8.64791C23.3491 3.86395 13.1096 6.34793 8.83161 13.8919C5.48283 19.8718 6.59602 27.5078 11.5272 32.1997C17.5807 37.9957 27.2591 37.9037 33.1194 32.1077C33.8646 31.3718 32.3742 32.9357 33.1194 32.1077ZM22.2359 34.3157C13.7628 34.3157 7.53442 26.2198 9.6688 18.1238C10.69 14.2599 13.5788 11.0399 17.2955 9.47591C21.2975 7.81992 25.9527 8.27992 29.4855 10.6719C33.9566 13.6159 36.091 19.1358 34.9778 24.2878C33.6714 30.0838 28.2803 34.3157 22.2267 34.3157C18.7859 34.3157 24.7383 34.3157 22.2267 34.3157H22.2359Z" fill="#C4AA6B"/>
<path d="M30.3322 47.1957C30.3322 46.5518 29.771 45.9998 29.1178 45.9998H5.85119C4.3608 45.9998 4.3608 48.2997 5.85119 48.2997H29.1178C29.771 48.3917 30.3322 47.8397 30.3322 47.1957Z" fill="#C4AA6B"/>
<path d="M37.3059 49.4956H16.3668C14.8764 49.4956 14.8764 51.7956 16.3668 51.7956H37.3059C38.7963 51.7956 38.7963 49.4956 37.3059 49.4956Z" fill="#C4AA6B"/>
<path d="M52.4766 3.49597H51.2622C51.2622 1.56399 49.6798 0 47.7294 0H40.7466C38.8883 0 37.2139 1.56399 37.2139 3.49597C37.2139 5.42796 38.7963 6.99195 40.7466 6.99195H44.2794C44.2794 8.92394 45.8618 10.4879 47.8122 10.4879H52.4674C54.3257 10.4879 56.0001 8.92394 56.0001 6.99195C56.0001 5.05996 54.3257 3.49597 52.4674 3.49597H52.4766ZM52.4766 8.09594H47.8214C47.0762 8.09594 46.423 7.26795 46.7082 6.53195C46.8922 6.07196 47.0854 5.70396 46.8002 5.24396C46.6162 4.87596 46.239 4.69197 45.779 4.69197H40.8478C39.3575 4.69197 39.3575 2.39198 40.8478 2.39198H47.8306C48.5758 2.39198 49.229 3.21998 48.9438 3.95597C48.7598 4.41597 48.5758 4.78397 48.8518 5.24396C49.0358 5.61196 49.413 5.79596 49.873 5.79596H52.4766C53.9669 5.79596 53.9669 8.09594 52.4766 8.09594Z" fill="#C4AA6B"/>
<path d="M48.9439 29.9917C50.8023 29.9917 52.4767 28.4278 52.4767 26.4958C52.4767 24.5638 50.8023 23.0918 48.9439 23.0918C47.0855 23.0918 45.4111 24.6558 45.4111 26.5878C45.5031 28.4278 47.0855 29.9917 48.9439 29.9917ZM48.9439 25.3918C50.4343 25.3918 50.4343 27.6918 48.9439 27.6918C47.4535 27.6918 47.4535 25.3918 48.9439 25.3918Z" fill="#C4AA6B"/>
<path d="M7.06555 40.2958C7.06555 38.4558 5.48316 36.7998 3.53277 36.7998C1.58239 36.7998 0 38.3638 0 40.2958C0 42.2278 1.58239 43.7918 3.53277 43.7918C5.48316 43.7918 7.06555 42.2278 7.06555 40.2958ZM3.62477 41.4918C2.13438 41.4918 2.13438 39.1918 3.62477 39.1918C5.11516 39.1918 5.11516 41.4918 3.62477 41.4918Z" fill="#C4AA6B"/>
</svg>
