<svg width="58" height="56" viewBox="0 0 58 56" fill="none" xmlns="http://www.w3.org/2000/svg">
<path d="M45.1433 41.4162L43.9872 40.2696L47.6564 36.6386C47.8475 36.4475 47.943 36.2564 47.943 36.0653L48.3252 34.5364C48.8125 34.8231 49.3858 34.7275 49.7776 34.3453L56.3516 27.8478C56.8389 27.37 56.8389 26.6056 56.3516 26.1279L41.369 11.3173C40.8817 10.8395 40.1077 10.8395 39.63 11.3173L33.056 17.8148C32.9605 17.9104 32.9605 18.0059 32.8649 18.0059C31.317 17.3371 29.6735 17.0504 28.1255 17.5282C26.7687 17.9104 25.8036 18.8659 24.6474 19.6303C24.6474 19.3437 24.5519 19.1526 24.2652 18.9615L17.6912 12.4639C17.2039 11.9862 16.43 11.9862 15.9522 12.4639L0.969648 27.37C0.491888 27.8478 0.491888 28.6122 0.969648 29.09L7.54363 35.5875C7.63918 35.6831 7.83028 35.8742 8.03094 35.8742L8.70936 38.0719C8.80491 38.263 8.90046 38.4541 8.99601 38.5496L10.7351 40.2696L5.70903 45.1427C4.25664 46.576 4.25664 49.0603 5.70903 50.4936C7.16142 51.9269 9.67443 51.9269 11.1173 50.4936C12.0823 52.7869 15.0827 53.5513 17.0128 52.0224C18.0735 54.4112 21.3604 55.0801 23.3001 53.2646L23.5868 52.978C24.5519 55.4623 27.9344 56.1312 29.8741 54.2201L35.0913 48.9648C36.9259 49.4425 38.9611 48.5826 39.7351 46.7671C41.283 48.2959 43.8916 48.2004 45.344 46.576C46.7008 45.2383 46.6053 42.8495 45.1529 41.4162H45.1433ZM40.5091 13.8972L53.8481 27.0834L49.0132 31.861L35.6741 18.6748L40.5091 13.8972ZM26.8738 20.9681C27.8389 20.2036 28.8039 19.5348 30.1608 19.7259C30.7436 19.8214 31.317 20.0125 31.8998 20.2036C32.4827 20.4903 32.9605 20.777 33.5433 20.4903L33.83 20.2992L46.2995 32.6254L45.6211 35.2053L42.2386 38.6452L28.1255 24.6946C27.9344 24.5035 27.5427 24.3124 27.256 24.3124C26.1954 24.3124 24.9341 24.8857 23.969 25.1723C22.7173 25.459 21.456 25.7457 20.1947 25.6501C19.6118 25.6501 17.4906 25.2679 17.5861 24.3124C17.6817 23.8346 18.3601 23.548 18.6468 23.3569C19.1341 23.1658 19.6118 22.9746 20.0992 22.8791C20.682 22.688 21.456 22.7835 22.0293 22.4969C22.8988 22.4013 23.8639 22.4013 24.7334 22.1147C25.603 21.9236 26.2814 21.4458 26.8642 20.9681C25.8992 21.6369 27.8293 20.2992 26.8642 20.9681H26.8738ZM3.57822 28.23L16.9173 14.9483L21.7522 19.7259C21.6567 19.7259 21.6567 19.8214 21.5611 19.917L21.2744 20.2036L21.1789 20.2992L21.0833 20.3947C18.6659 20.6814 13.5443 22.4013 15.4744 25.8412L8.22204 33.1032L3.57822 28.23ZM17.8823 47.9137L15.7515 50.0159C14.6909 51.0669 12.7512 49.8248 13.4296 48.487C13.7163 47.8182 14.3947 47.436 13.8214 46.6715C13.4296 46.0027 12.4646 45.9071 11.9868 46.4804L9.47377 48.9648C8.11694 50.207 6.09123 48.2959 7.44807 46.9582L12.4741 42.085L18.2741 47.8182C18.083 47.7226 17.9875 47.8182 17.8823 47.9137ZM21.5611 51.5447C20.9782 52.118 20.1087 52.0224 19.5354 51.5447C19.0481 51.0669 18.9525 50.207 19.5354 49.6336C19.631 49.5381 19.7265 49.4425 19.7265 49.347L20.8827 50.5892C21.1693 50.8758 21.4656 51.0669 21.8478 51.258L21.5611 51.5447ZM28.1351 52.5958C27.0745 53.6468 25.3354 52.5002 25.7176 51.1625C26.396 50.7803 26.9693 50.1114 27.2656 49.347L27.5522 49.6336C28.2306 50.3025 29.1002 50.6847 30.0652 50.7803L28.1351 52.5958ZM43.4998 45.1427C42.917 45.716 42.0475 45.6205 41.4741 45.1427L38.9611 42.6584C38.4738 42.1806 37.6998 42.1806 37.2221 42.6584C36.5437 43.3272 37.031 43.9005 37.4132 44.5694C38.3783 45.9071 36.3526 47.436 35.1868 46.2893L33.056 44.1872C31.9954 43.1361 30.2563 44.7605 31.317 45.9071C31.8998 46.4804 31.8043 47.2449 31.317 47.8182C30.7341 48.2959 29.8646 48.3915 29.2913 47.8182L26.5871 45.1427C25.8132 44.3783 24.4563 44.9516 24.5614 46.0027C24.5614 46.576 25.1443 46.9582 25.2399 47.436C25.3354 47.9137 25.2399 48.487 24.7525 48.8692C24.657 48.9648 24.5614 49.0603 24.4659 49.0603C24.3703 49.0603 24.2748 49.1559 24.2748 49.1559C23.7875 49.347 23.1186 49.1559 22.7268 48.7737L20.0227 46.0027L13.2576 39.314L10.9357 37.0208L10.1617 34.632L14.8056 30.0455L17.4141 27.37C20.3189 28.8989 23.9881 27.6567 26.8833 26.8923L41.283 41.1295L43.4138 43.1361C44.0923 43.7094 44.0923 44.6649 43.5094 45.1427C43.2227 45.4294 44.0923 44.6649 43.5094 45.1427H43.4998Z" fill="#C4AA6B"/>
<path d="M8.50914 29.8544C10.4393 29.8544 10.4393 26.8923 8.50914 26.8923C6.57899 26.8923 6.57899 29.8544 8.50914 29.8544Z" fill="#C4AA6B"/>
<path d="M50.361 26.9878C50.361 25.0767 47.4658 25.1723 47.4658 26.9878C47.4658 28.8033 50.361 28.8033 50.361 26.9878C50.361 27.37 50.361 26.6056 50.361 26.9878Z" fill="#C4AA6B"/>
<path d="M4.84009 15.9995C6.77025 15.9995 8.50929 14.3751 8.50929 12.3685C8.50929 10.3619 6.8658 8.73755 4.84009 8.73755C2.81439 8.73755 1.1709 10.3619 1.1709 12.3685C1.26645 14.3751 2.90994 15.9995 4.84009 15.9995ZM4.84009 11.2219C6.38804 11.2219 6.38804 13.6107 4.84009 13.6107C3.29215 13.6107 3.29215 11.2219 4.84009 11.2219Z" fill="#C4AA6B"/>
<path d="M52.587 8.83289C54.9089 8.83289 56.8391 6.92185 56.8391 4.6286C56.8391 2.33536 54.9089 0.424316 52.587 0.424316C50.2651 0.424316 48.335 2.33536 48.335 4.6286C48.335 6.92185 50.2651 8.83289 52.587 8.83289ZM52.587 2.81312C54.9089 2.81312 54.9089 6.44409 52.587 6.44409C50.2651 6.44409 50.2651 2.81312 52.587 2.81312Z" fill="#C4AA6B"/>
<path d="M48.3348 47.0537C46.7868 47.0537 46.7868 49.4425 48.3348 49.4425H56.8389C58.3869 49.4425 58.3869 47.0537 56.8389 47.0537H48.3348Z" fill="#C4AA6B"/>
<path d="M56.8389 50.5894H48.3348C46.7868 50.5894 46.7868 52.9782 48.3348 52.9782H56.8389C58.3869 52.9782 58.3869 50.5894 56.8389 50.5894Z" fill="#C4AA6B"/>
<path d="M1.25606 37.4987H4.73415C6.28209 37.4987 6.28209 35.1099 4.73415 35.1099H1.25606C-0.387436 35.1099 -0.387436 37.4987 1.25606 37.4987Z" fill="#C4AA6B"/>
<path d="M5.90034 39.8872C5.90034 39.2183 5.31747 38.645 4.6486 38.645H1.16096C-0.386986 38.645 -0.386986 41.0338 1.16096 41.0338H4.63905C5.31747 41.0338 5.89078 40.5561 5.89078 39.8872H5.90034Z" fill="#C4AA6B"/>
</svg>
