<svg width="59" height="56" viewBox="0 0 59 56" fill="none" xmlns="http://www.w3.org/2000/svg">
<path d="M53.4824 45.0151C52.8001 45.0151 52.3196 45.5053 52.2139 46.2837C52.2139 46.9661 52.8001 47.5427 53.4824 47.5427C54.1648 47.5427 54.7414 46.9564 54.7414 46.2837C54.7414 45.611 54.1552 45.0151 53.4824 45.0151Z" fill="#C4AA6B"/>
<path d="M49.878 15.9436C50.5603 15.9436 51.1465 15.3573 51.1465 14.6846C51.1465 14.0119 50.5603 13.416 49.878 13.416C49.1956 13.416 48.6094 14.0023 48.6094 14.6846C48.6094 15.3669 49.1956 15.9436 49.878 15.9436Z" fill="#C4AA6B"/>
<path d="M48.6193 49.8687C47.937 49.8687 47.4565 50.3588 47.3604 51.1372C47.3604 51.8196 47.9466 52.4058 48.6193 52.4058C49.292 52.4058 49.8879 51.8196 49.8879 51.1372C49.8879 50.4549 49.3017 49.8687 48.6193 49.8687Z" fill="#C4AA6B"/>
<path d="M42.5938 4.95894C43.2761 4.95894 43.8623 4.3727 43.8623 3.69036C43.8623 3.00802 43.2761 2.4314 42.5938 2.4314C41.9114 2.4314 41.3252 3.01763 41.3252 3.69036C41.3252 4.36309 41.9114 4.95894 42.5938 4.95894Z" fill="#C4AA6B"/>
<path d="M34.04 35.2895C34.04 35.8757 34.7224 36.4523 35.3086 36.4523C35.8949 36.4523 36.5772 35.9622 36.5772 35.2895C36.5772 34.6168 35.991 34.0305 35.3086 34.0305C34.6263 34.0305 34.04 34.7129 34.04 35.2895Z" fill="#C4AA6B"/>
<path d="M25.4775 37.721C25.4775 38.4033 26.0638 38.9799 26.7365 38.9799C27.4092 38.9799 27.9955 38.3937 27.9955 37.721C27.9955 37.0482 27.4092 36.4524 26.7365 36.4524C26.0638 36.4524 25.4775 37.0386 25.4775 37.721Z" fill="#C4AA6B"/>
<path d="M18.2891 2.52754C18.9714 2.52754 19.5577 1.94131 19.5577 1.26858C19.5577 0.595847 18.9714 0 18.2891 0C17.6067 0 17.0205 0.586236 17.0205 1.26858C17.0205 1.95092 17.6067 2.52754 18.2891 2.52754Z" fill="#C4AA6B"/>
<path d="M10.9942 14.6848C11.6765 14.6848 12.2531 14.0985 12.2531 13.4162C12.2531 12.7339 11.6669 12.1572 10.9942 12.1572C10.3214 12.1572 9.72559 12.7435 9.72559 13.4162C9.72559 14.0889 10.3118 14.6848 10.9942 14.6848Z" fill="#C4AA6B"/>
<path d="M4.87209 18.2791C4.18975 18.2791 3.60352 18.8653 3.60352 19.538C3.60352 20.2107 4.18975 20.8066 4.87209 20.8066C5.55443 20.8066 6.13106 20.2204 6.13106 19.538C6.13106 18.8557 5.54482 18.2791 4.87209 18.2791Z" fill="#C4AA6B"/>
<path d="M6.13106 43.8428C6.13106 43.1605 5.54482 42.5742 4.87209 42.5742C4.19936 42.5742 3.70923 43.0644 3.60352 43.8428C3.60352 44.5251 4.18975 45.1018 4.87209 45.1018C5.55443 45.1018 6.13106 44.5155 6.13106 43.8428Z" fill="#C4AA6B"/>
<path d="M54.5488 29.4561C53.482 29.4561 52.5114 29.9462 51.829 30.7246L49.3015 33.5405C47.6485 35.3857 45.3132 36.4524 42.7856 36.4524H42.1033C37.2404 36.4524 31.503 41.1231 31.503 47.0528V53.3764H26.8323V47.0528C26.8323 41.2192 22.0655 36.4524 16.232 36.4524H15.4536C12.926 36.4524 10.5907 35.3857 8.9377 33.5405L6.41016 30.7246C5.72782 29.8501 4.75716 29.4561 3.69041 29.4561C1.65299 29.4561 0 31.0129 0 33.0504C0 33.9249 0.288313 34.7995 0.874549 35.4818L6.80418 42.4782C7.87094 43.6411 9.13952 44.5156 10.6003 45.1979C12.0611 45.8803 13.618 46.1686 15.1653 46.1686C16.1359 46.1686 16.8183 46.947 16.8183 47.8216V53.3668H13.4162C12.7338 53.3668 12.1572 53.953 12.1572 54.6354C12.1572 55.3177 12.7434 55.904 13.4162 55.904H17.6159C17.7601 55.9616 17.9235 56.0001 18.0868 56.0001C18.2502 56.0001 18.4136 55.9616 18.5577 55.904H45.0153C45.6015 55.904 46.1781 55.3177 46.2742 54.6354C46.2742 53.953 45.688 53.3668 45.0153 53.3668H41.2191V47.7255C41.2191 46.7548 41.9976 46.0725 42.8721 46.0725C44.429 46.0725 45.9859 45.7842 47.4371 45.1018C48.8979 44.5156 50.1568 43.5449 51.2332 42.3821L57.355 35.4818C57.9413 34.7995 58.2296 33.9249 58.2296 33.0504C58.2296 31.0129 56.5766 29.4561 54.5392 29.4561H54.5488ZM15.271 43.7468C14.0024 43.7468 12.8395 43.4585 11.6767 42.9683C10.6099 42.4782 9.53355 41.8055 8.76471 40.8252L2.64287 33.9249C2.45066 33.7327 2.35456 33.4348 2.35456 33.1465C2.35456 32.4641 3.0369 31.9836 3.61352 31.9836C3.80573 31.9836 4.19976 32.0797 4.48807 32.3776L7.01561 35.1935C9.15874 37.5288 12.1668 38.8839 15.3767 38.8839H16.1551C20.624 38.8839 24.324 42.5743 24.324 47.0528V53.3764H19.365V47.8312C19.365 45.592 17.5198 43.7468 15.2806 43.7468H15.271ZM55.6156 33.8288L49.4937 40.7291C48.7153 41.6036 47.7446 42.3821 46.5721 42.8722C45.4093 43.3623 44.2368 43.6507 42.9778 43.6507C40.7386 43.6507 38.8934 45.4959 38.8934 47.7351V53.3764H34.0305V47.0528C34.0305 45.0153 35.0012 42.9683 36.7503 41.2192C38.3072 39.6623 40.3446 38.7878 42.1994 38.7878H42.8817C46.0916 38.7878 49.0997 37.4231 51.2428 35.0974L53.7704 32.2815C54.0587 31.9932 54.4527 31.8971 54.6449 31.8971C55.3272 31.8971 55.9039 32.2815 55.9039 33.06C55.9039 33.3483 55.8078 33.6462 55.6156 33.8384V33.8288Z" fill="#C4AA6B"/>
<path d="M7.88096 48.7058C6.22796 48.7058 4.86328 50.0705 4.86328 51.7235C4.86328 53.3765 6.22796 54.7412 7.88096 54.7412C9.53395 54.7412 10.9947 53.2804 10.8986 51.7235C10.8986 50.0705 9.53395 48.7058 7.88096 48.7058ZM8.46719 51.6274C8.46719 51.9157 8.17888 52.2136 7.88096 52.2136C7.58303 52.2136 7.29472 51.9253 7.29472 51.6274C7.29472 51.3295 7.58303 51.0411 7.88096 51.0411C8.26537 51.0411 8.5633 51.3295 8.46719 51.6274Z" fill="#C4AA6B"/>
<path d="M8.46675 25.4675H7.30389C6.62155 25.4675 6.04492 26.0537 6.04492 26.7361C6.04492 27.4184 6.63116 27.995 7.30389 27.995H52.3191C52.9054 27.995 53.482 27.4088 53.5781 26.7361C53.5781 26.0537 52.9919 25.4675 52.3191 25.4675H51.0506V19.4417C51.0506 18.7594 50.4643 18.1732 49.782 18.1732H40.1619V12.1474H42.5934C43.0835 12.1474 43.564 11.7534 43.6601 11.2729C43.7562 10.7827 43.564 10.2061 43.0739 9.9082L30.3401 2.61388C30.0518 2.42167 29.5616 2.42167 29.1772 2.61388L16.3473 9.9082C15.8572 10.1965 15.665 10.7827 15.7611 11.2729C15.8572 11.763 16.3473 12.1474 16.9239 12.1474H19.3554V18.1732H9.73533C9.05299 18.1732 8.46675 18.7594 8.46675 19.4417V25.4675ZM14.5886 20.7103H15.6554V25.4771H14.5886V20.7103ZM21.7868 19.9127C21.8445 19.7685 21.8829 19.6051 21.8829 19.4417V12.1474H37.6344V25.4675H34.1362V22.4498C34.1362 21.2869 33.6461 20.1145 32.8676 19.336C31.9931 18.5576 30.9263 18.0675 29.7539 18.0675C27.3224 18.0675 25.3811 20.0088 25.3811 22.4402V25.4579H21.7868V19.903V19.9127ZM43.7562 20.7103H44.823V25.4771H43.7562V20.7103ZM41.3248 25.4675H40.1619V20.7007H41.3248V25.4675ZM31.8009 25.4675H27.9086V22.4498C27.9086 21.3831 28.7832 20.5085 29.85 20.5085C30.3401 20.5085 30.8206 20.7007 31.2146 21.0947C31.5991 21.4792 31.8009 21.9693 31.8009 22.4594V25.4771V25.4675ZM48.6191 25.4675H47.3602V20.6046H48.6191V25.4675ZM29.7539 4.95883L37.8747 9.6295H21.5369L29.7539 4.95883ZM19.3554 25.4675H18.1925V20.6046H19.3554V25.4675ZM12.0611 20.7103V25.4771H10.8982V20.7103H12.0611Z" fill="#C4AA6B"/>
<path d="M41.4205 30.3305C41.4205 29.6482 40.8342 29.0715 40.1519 29.0715H19.4414C18.7591 29.0715 18.1729 29.6578 18.1729 30.3305C18.1729 31.0032 18.7591 31.5991 19.4414 31.5991H40.1519C40.7381 31.5991 41.4205 31.0128 41.4205 30.3305Z" fill="#C4AA6B"/>
<path d="M5.44932 12.1572C7.10231 12.1572 8.5631 10.7925 8.46699 9.1395C8.46699 7.48651 7.10231 6.12183 5.44932 6.12183C3.79632 6.12183 2.43164 7.48651 2.43164 9.1395C2.43164 10.7925 3.79632 12.1572 5.44932 12.1572ZM5.44932 8.55326C5.83373 8.55326 6.13166 8.74547 6.03555 9.1395C6.03555 9.42781 5.74724 9.72574 5.44932 9.72574C5.15139 9.72574 4.86308 9.43742 4.86308 9.1395C4.86308 8.84158 5.15139 8.55326 5.44932 8.55326Z" fill="#C4AA6B"/>
<path d="M53.4824 9.72587C55.5198 9.72587 57.1728 8.16898 57.1728 6.13157C57.1728 4.09416 55.5198 2.44116 53.4824 2.44116C51.445 2.44116 49.792 4.19026 49.792 6.13157C49.792 8.07287 51.445 9.72587 53.4824 9.72587ZM53.4824 4.86299C54.1647 4.86299 54.7414 5.44923 54.7414 6.02585C54.7414 6.70819 54.1551 7.28482 53.4824 7.28482C52.8097 7.28482 52.2138 6.79469 52.2138 6.12196C52.2138 5.44923 52.8001 4.86299 53.4824 4.86299Z" fill="#C4AA6B"/>
</svg>
